<svg xmlns="http://www.w3.org/2000/svg" width="960" height="408" viewBox="0 0 960 408" role="img" aria-label="NMSh terminal stack"><title>NMSh terminal stack</title><defs><marker id="arrow" markerWidth="9" markerHeight="9" refX="8" refY="4" orient="auto"><path d="M0 0 L8 4 L0 8" fill="#8b84b2"/></marker></defs><rect width="960" height="408" rx="20" fill="#15141c"/><g font-family="ui-sans-serif,system-ui,sans-serif"><rect x="36" y="24" width="4" height="4" fill="#ac96e6"/><rect x="52" y="24" width="4" height="4" fill="#ac96e6"/><rect x="36" y="28" width="4" height="4" fill="#ac96e6"/><rect x="40" y="28" width="4" height="4" fill="#ac96e6"/><rect x="44" y="28" width="4" height="4" fill="#ac96e6"/><rect x="48" y="28" width="4" height="4" fill="#ac96e6"/><rect x="52" y="28" width="4" height="4" fill="#ac96e6"/><rect x="36" y="32" width="4" height="4" fill="#ac96e6"/><rect x="40" y="32" width="4" height="4" fill="#161220"/><rect x="44" y="32" width="4" height="4" fill="#ac96e6"/><rect x="48" y="32" width="4" height="4" fill="#161220"/><rect x="52" y="32" width="4" height="4" fill="#ac96e6"/><rect x="84" y="32" width="4" height="4" fill="#ac96e6"/><rect x="36" y="36" width="4" height="4" fill="#ac96e6"/><rect x="40" y="36" width="4" height="4" fill="#161220"/><rect x="44" y="36" width="4" height="4" fill="#ac96e6"/><rect x="48" y="36" width="4" height="4" fill="#161220"/><rect x="52" y="36" width="4" height="4" fill="#ac96e6"/><rect x="80" y="36" width="4" height="4" fill="#ac96e6"/><rect x="36" y="40" width="4" height="4" fill="#ac96e6"/><rect x="40" y="40" width="4" height="4" fill="#ac96e6"/><rect x="44" y="40" width="4" height="4" fill="#ac96e6"/><rect x="48" y="40" width="4" height="4" fill="#ac96e6"/><rect x="52" y="40" width="4" height="4" fill="#ac96e6"/><rect x="56" y="40" width="4" height="4" fill="#ac96e6"/><rect x="60" y="40" width="4" height="4" fill="#ac96e6"/><rect x="64" y="40" width="4" height="4" fill="#ac96e6"/><rect x="68" y="40" width="4" height="4" fill="#ac96e6"/><rect x="72" y="40" width="4" height="4" fill="#ac96e6"/><rect x="76" y="40" width="4" height="4" fill="#ac96e6"/><rect x="40" y="44" width="4" height="4" fill="#ac96e6"/><rect x="44" y="44" width="4" height="4" fill="#ac96e6"/><rect x="48" y="44" width="4" height="4" fill="#ac96e6"/><rect x="52" y="44" width="4" height="4" fill="#ac96e6"/><rect x="56" y="44" width="4" height="4" fill="#ac96e6"/><rect x="60" y="44" width="4" height="4" fill="#ac96e6"/><rect x="64" y="44" width="4" height="4" fill="#ac96e6"/><rect x="68" y="44" width="4" height="4" fill="#ac96e6"/><rect x="72" y="44" width="4" height="4" fill="#ac96e6"/><rect x="76" y="44" width="4" height="4" fill="#ac96e6"/><rect x="40" y="48" width="4" height="4" fill="#ac96e6"/><rect x="44" y="48" width="4" height="4" fill="#ac96e6"/><rect x="48" y="48" width="4" height="4" fill="#ac96e6"/><rect x="52" y="48" width="4" height="4" fill="#ac96e6"/><rect x="56" y="48" width="4" height="4" fill="#ac96e6"/><rect x="60" y="48" width="4" height="4" fill="#ac96e6"/><rect x="64" y="48" width="4" height="4" fill="#ac96e6"/><rect x="68" y="48" width="4" height="4" fill="#ac96e6"/><rect x="72" y="48" width="4" height="4" fill="#ac96e6"/><rect x="76" y="48" width="4" height="4" fill="#ac96e6"/><rect x="40" y="52" width="4" height="4" fill="#ac96e6"/><rect x="48" y="52" width="4" height="4" fill="#ac96e6"/><rect x="68" y="52" width="4" height="4" fill="#ac96e6"/><rect x="76" y="52" width="4" height="4" fill="#ac96e6"/><text x="103" y="50" fill="#c5b9e8" font-size="26">notMyShell</text><text x="32" y="84" fill="#b0b8c2" font-size="17">Your terminal. Your real shell. NMSh brings them together.</text><rect x="32" y="125" width="270" height="116" rx="14" fill="#1d202c" stroke="#555b70"/><text x="52" y="157" fill="#f2f0ec" font-size="20">Terminal host</text><text x="52" y="186" fill="#b0b8c2" font-size="15">Ghostty · Zed · Terminal.app</text><text x="52" y="210" fill="#b0b8c2" font-size="15">Fonts, window, key transport</text><rect x="344" y="125" width="270" height="116" rx="14" fill="#252139" stroke="#c5b9e8"/><text x="364" y="157" fill="#c5b9e8" font-size="20">NMSh frontend</text><text x="364" y="186" fill="#b0b8c2" font-size="15">Composer, prompt, feedback</text><text x="364" y="210" fill="#b0b8c2" font-size="15">Transcript, themes, sessions</text><rect x="656" y="125" width="270" height="116" rx="14" fill="#1d202c" stroke="#555b70"/><text x="676" y="157" fill="#f2f0ec" font-size="20">Persistent real shell</text><text x="676" y="186" fill="#b0b8c2" font-size="15">ShellAdapter + hidden PTY</text><text x="676" y="210" fill="#b0b8c2" font-size="15">zsh · Bash 4.4+ · Fish</text><path d="M302 180 L338 180" fill="none" stroke="#8b84b2" stroke-width="2"  marker-end="url(#arrow)"/><path d="M614 180 L650 180" fill="none" stroke="#8b84b2" stroke-width="2"  marker-end="url(#arrow)"/><rect x="656" y="286" width="270" height="90" rx="14" fill="#1d202c" stroke="#555b70"/><text x="676" y="318" fill="#f2f0ec" font-size="20">CLI / TUI programs</text><text x="676" y="347" fill="#b0b8c2" font-size="15">git · npm · Vim · agent CLIs</text><path d="M791 241 L791 280" fill="none" stroke="#8b84b2" stroke-width="2"  marker-end="url(#arrow)"/><text x="32" y="292" fill="#f2f0ec" font-size="18">Shell state survives between commands.</text><text x="32" y="322" fill="#7fc4cc" font-size="16">Fullscreen programs use passthrough to the host.</text></g></svg>
